<svg xmlns="http://www.w3.org/2000/svg" version="1.1" xmlns:xlink="http://www.w3.org/1999/xlink" xmlns:svgjs="http://svgjs.com/svgjs" width="36" height="36"><svg viewBox="0 0 36 36" xmlns="http://www.w3.org/2000/svg">
  <defs></defs>
  <path d="M 5.2 28.667 L 5.2 22.09 C 5.2 20.618 4.127 19.423 2.8 19.423 L 2 19.423 L 2 16.577 L 2.8 16.577 C 4.127 16.577 5.2 15.386 5.2 13.91 L 5.2 7.333 C 5.2 4.388 7.35 2 10 2 L 11.6 2 L 11.6 5.556 L 10 5.556 C 9.119 5.556 8.4 6.352 8.4 7.333 L 8.4 14.623 C 8.4 16.197 7.48 17.535 6.203 18 C 7.48 18.468 8.4 19.804 8.4 21.377 L 8.4 28.667 C 8.4 29.649 9.119 30.444 10 30.444 L 11.6 30.444 L 11.6 34 L 10 34 C 7.35 34 5.2 31.612 5.2 28.667 Z M 30.8 22.09 L 30.8 28.667 C 30.8 31.612 28.65 34 26 34 L 24.4 34 L 24.4 30.444 L 26 30.444 C 26.881 30.444 27.6 29.649 27.6 28.667 L 27.6 21.377 C 27.6 19.804 28.521 18.468 29.798 18 C 28.521 17.535 27.6 16.197 27.6 14.623 L 27.6 7.333 C 27.6 6.352 26.881 5.556 26 5.556 L 24.4 5.556 L 24.4 2 L 26 2 C 28.65 2 30.8 4.388 30.8 7.333 L 30.8 13.91 C 30.8 15.386 31.872 16.577 33.2 16.577 L 34 16.577 L 34 19.423 L 33.2 19.423 C 31.872 19.423 30.8 20.618 30.8 22.09 Z" style="fill: rgb(103, 216, 239);" transform="matrix(0.9999999999999999, 0, 0, 0.9999999999999999, 0, -1.3877787807814457e-17)"></path>
  <path d="M 10.44 27.45 L 10.44 13.45 L 13.94 13.45 L 13.94 9.95 L 20.94 9.95 L 20.94 13.45 L 24.44 13.45 L 24.44 27.45 L 20.94 27.45 L 20.94 20.45 L 13.94 20.45 L 13.94 27.45 Z M 13.94 16.95 L 20.94 16.95 L 20.94 13.59 L 13.94 13.59 Z" style="fill: rgb(249, 36, 114);"></path>
</svg><style>@media (prefers-color-scheme: light) { :root { filter: none; } }
</style></svg>